<svg xmlns="http://www.w3.org/2000/svg" version="1.1" xmlns:xlink="http://www.w3.org/1999/xlink" width="512" height="512"><svg xmlns="http://www.w3.org/2000/svg" version="1.1" xmlns:xlink="http://www.w3.org/1999/xlink" width="512" height="512"><svg width="512" height="512" version="1.1" viewBox="0 0 512 512" xml:space="preserve" xmlns="http://www.w3.org/2000/svg"><g transform="translate(-79.396 -47.911)"><path d="m456.67 133.12c-6.973 0.55657-13.919 1.4129-20.876 2.1431-41.523 4.6158-83.024 9.443-124.52 14.341-17.727 2.1152-35.46 4.1771-53.161 6.4909-1.5232 0.20489-3.0546 0.39335-4.5169 0.88845-0.46923 3.7956-0.47976 7.6304-0.71778 11.445-1.6169 34.454-3.0579 68.915-4.528 103.38-2.6488 62.734-5.2586 125.47-7.7262 188.21-0.40479 11.079-0.89338 22.157-1.1745 33.239 0.0379 2.6622-0.0994 5.3445 0.211 7.9918 0.10821 0.68059 0.6691 1.177 0.98437 1.7734 9.9551-1.2166 19.931-2.2674 29.866-3.6383 3.9233-0.60499 7.8842-1.0879 11.727-2.107 0.95672-0.2569 1.9926-0.88706 2.061-1.9696 0.48727-4.7453 0.62596-9.521 0.91272-14.281 1.7996-35.846 3.0125-71.718 4.5782-107.57 0.3753-8.6303 0.73969-17.307 1.1986-25.901 0.13391-1.9886 0.3301-4.1785 0.49135-6.2436 0.16391-0.48806 1.1306-0.20127 1.6057-0.389 29.579-3.4798 59.176-6.816 88.732-10.484 4.5432-0.59297 9.1015-1.0948 13.622-1.8424 0.4847-0.25578 1.3258-0.1651 1.3333-0.88258 0.56451-1.7802 0.47728-3.6865 0.66785-5.529 0.65439-10.772 1.1804-21.554 1.4608-32.343 0.0417-1.4831 0.0704-2.9785-0.35077-4.4172-0.29805-0.40177-1.1576-0.17804-1.6813-0.32854-4.8721 0.34913-9.7239 0.97085-14.583 1.475-27.215 2.9918-54.373 6.4247-81.606 9.1772-2.3278 0.21626-4.7694 0.47324-7.1465 0.64844 0.14116-12.523 0.61696-25.015 1.018-37.522 0.57525-16.528 1.1848-33.118 1.9859-49.597 0.22366-4.7038 0.5582-9.4006 0.94141-14.094 41.82-4.8983 83.653-9.6921 125.46-14.709 10.73-1.3166 21.471-2.5544 32.18-4.0425 0.5115-0.11655 1.1302-0.17205 1.5473-0.4542 0.98287-1.3602 0.81011-3.118 1.0179-4.7006 0.6881-9.506 1.0573-19.034 1.3281-28.56 0.0179-2.6132 0.20681-5.244-0.0575-7.8469-0.12492-0.5885-0.4569-1.1075-0.6757-1.6645-0.53693-0.0204-1.0748-0.0791-1.6113-0.0781z" fill="#fff"></path><path d="m226.98 502.5c0.41036-8.4408 0.33218-14.594-0.18555-14.603-0.49211-8e-3 -7.3163 0.73271-15.165 1.6466s-14.433 1.4831-14.632 1.265c-0.19916-0.21811 2.043-58.897 4.9826-130.4 2.9396-71.5 6.386-155.51 7.6586-186.69 1.2726-31.181 2.527-56.89 2.7875-57.131s51.549-6.363 113.97-13.605c62.425-7.2416 114.99-13.424 116.8-13.74l3.3014-0.57329-0.70193 16.621c-0.38607 9.1415-0.37013 16.621 0.0354 16.621 0.40555 0 6.378-0.69528 13.272-1.5451s12.617-1.4123 12.718-1.25c0.36324 0.58441-2.6332 67.305-3.0417 67.728-0.23015 0.23838-36.24 4.6053-80.023 9.7042-43.782 5.0989-79.729 9.4039-79.882 9.5666-0.15291 0.16267-0.661 10.139-1.1291 22.17l-0.8511 21.874 7.5-0.67295c4.125-0.37012 21.815-2.3631 39.312-4.4289s31.953-3.5062 32.126-3.2011c0.17283 0.30518 0.0138 7.5299-0.35335 16.055-0.36717 8.525-0.54818 15.676-0.40225 15.89 0.14594 0.21463 6.0147-0.2872 13.042-1.1152s12.93-1.3746 13.119-1.2148c0.92065 0.78207-2.301 67.672-3.2742 67.981-0.58735 0.18621-24.395 3.0302-52.906 6.3201-28.511 3.2898-51.972 6.1294-52.136 6.3102-0.16385 0.18077-1.7371 35.429-3.4962 78.329-1.759 42.9-3.2729 78.034-3.3641 78.076-0.0912 0.0417-15.016 1.7636-33.166 3.8266s-33.816 3.9809-34.814 4.262c-1.7158 0.48346-1.7759-0.2817-1.1052-14.077zm34.788-3.9898c10.927-1.299 20.167-2.8452 20.532-3.4361 0.36518-0.59087 1.9098-32.707 3.4325-71.368 1.5227-38.662 3.0248-73.467 3.338-77.345l0.56946-7.0512 52.467-6.119c28.857-3.3654 52.667-6.3187 52.911-6.5628 0.46804-0.46804 2.2657-38.994 1.8442-39.524-0.13478-0.1696-23.739 2.448-52.453 5.8169s-52.472 5.8617-52.794 5.5396c-0.58358-0.58357 2.316-83.276 3.4208-97.56l0.58109-7.5123 79.601-9.2803c43.78-5.1042 79.813-9.4922 80.072-9.7512 0.66777-0.66776 2.278-38.61 1.6647-39.223-0.58071-0.58072-200.79 22.686-201.53 23.419-0.49803 0.49803-13.872 320.8-13.971 334.61-0.0306 4.2625 0.0568 7.741 0.1943 7.7299 0.1375-0.0111 9.1906-1.0829 20.118-2.3819z"></path></g></svg></svg><style>@media (prefers-color-scheme: light) { :root { filter: none; } }
@media (prefers-color-scheme: dark) { :root { filter: invert(100%); } }
</style></svg>